<svg aria-hidden="true" style="position: absolute; width: 0; height: 0; overflow: hidden;" version="1.1" xmlns="http://www.w3.org/2000/svg" xmlns:xlink="http://www.w3.org/1999/xlink">
<defs>
<symbol id="icon-age-limit-0" viewBox="0 0 32 32">
<path d="M24 6.667h1.333v1.333c0 0.736 0.597 1.333 1.333 1.333s1.333-0.597 1.333-1.333v0-1.333h1.333c0.736 0 1.333-0.597 1.333-1.333s-0.597-1.333-1.333-1.333v0h-1.333v-1.333c0-0.736-0.597-1.333-1.333-1.333s-1.333 0.597-1.333 1.333v0 1.333h-1.333c-0.736 0-1.333 0.597-1.333 1.333s0.597 1.333 1.333 1.333v0zM16.667 8h-1.333c-2.209 0-4 1.791-4 4v0 8c0 2.209 1.791 4 4 4v0h1.333c2.209 0 4-1.791 4-4v0-8c0-2.209-1.791-4-4-4v0zM18 20c0 0.736-0.597 1.333-1.333 1.333v0h-1.333c-0.736 0-1.333-0.597-1.333-1.333v0-8c0-0.736 0.597-1.333 1.333-1.333v0h1.333c0.736 0 1.333 0.597 1.333 1.333v0zM28.8 12c-0.613 0.128-1.067 0.664-1.067 1.306 0 0.094 0.010 0.187 0.029 0.276l-0.002-0.009c0.157 0.728 0.247 1.563 0.247 2.42 0 6.627-5.373 12-12 12s-12-5.373-12-12c0-6.627 5.373-12 12-12 0.857 0 1.693 0.090 2.498 0.26l-0.078-0.014c0.080 0.017 0.172 0.026 0.267 0.026 0.751 0 1.36-0.609 1.36-1.36 0-0.657-0.465-1.204-1.084-1.332l-0.009-0.002c-0.793-0.155-1.705-0.244-2.638-0.244-0.113 0-0.226 0.001-0.339 0.004l0.017-0c-8.1 0-14.667 6.566-14.667 14.667s6.566 14.667 14.667 14.667c8.1 0 14.667-6.566 14.667-14.667v0c0-0.012 0-0.027 0-0.041 0-1.024-0.107-2.023-0.31-2.986l0.017 0.094c-0.118-0.626-0.66-1.093-1.311-1.093-0.093 0-0.183 0.009-0.271 0.027l0.009-0.001z"></path>
</symbol>
<symbol id="icon-age-limit-12" viewBox="0 0 32 32">
<path d="M14.667 12c0 0.736 0.597 1.333 1.333 1.333s1.333-0.597 1.333-1.333v0c0-0.736 0.597-1.333 1.333-1.333v0h1.333c0.736 0 1.333 0.597 1.333 1.333v0 1.333c0 0.736-0.597 1.333-1.333 1.333v0h-1.333c-2.209 0-4 1.791-4 4v0 4c0 0.736 0.597 1.333 1.333 1.333v0h6.667c0.736 0 1.333-0.597 1.333-1.333s-0.597-1.333-1.333-1.333v0h-5.333v-2.667c0-0.736 0.597-1.333 1.333-1.333v0h1.333c2.209 0 4-1.791 4-4v0-1.333c0-2.209-1.791-4-4-4v0h-1.333c-2.209 0-4 1.791-4 4v0zM24 6.667h1.333v1.333c0 0.736 0.597 1.333 1.333 1.333s1.333-0.597 1.333-1.333v0-1.333h1.333c0.736 0 1.333-0.597 1.333-1.333s-0.597-1.333-1.333-1.333v0h-1.333v-1.333c0-0.736-0.597-1.333-1.333-1.333s-1.333 0.597-1.333 1.333v0 1.333h-1.333c-0.736 0-1.333 0.597-1.333 1.333s0.597 1.333 1.333 1.333v0zM9.333 9.333v13.333c0 0.736 0.597 1.333 1.333 1.333s1.333-0.597 1.333-1.333v0-13.333c0-0.736-0.597-1.333-1.333-1.333s-1.333 0.597-1.333 1.333v0zM28.8 12c-0.613 0.128-1.067 0.664-1.067 1.306 0 0.094 0.010 0.187 0.029 0.276l-0.002-0.009c0.157 0.728 0.247 1.563 0.247 2.42 0 6.627-5.373 12-12 12s-12-5.373-12-12c0-6.627 5.373-12 12-12 0.857 0 1.693 0.090 2.498 0.26l-0.078-0.014c0.080 0.017 0.172 0.026 0.267 0.026 0.751 0 1.36-0.609 1.36-1.36 0-0.657-0.465-1.204-1.084-1.332l-0.009-0.002c-0.793-0.155-1.705-0.244-2.638-0.244-0.113 0-0.226 0.001-0.339 0.004l0.017-0c-8.1 0-14.667 6.566-14.667 14.667s6.566 14.667 14.667 14.667c8.1 0 14.667-6.566 14.667-14.667v0c0-0.012 0-0.027 0-0.041 0-1.024-0.107-2.023-0.31-2.986l0.017 0.094c-0.118-0.626-0.66-1.093-1.311-1.093-0.093 0-0.183 0.009-0.271 0.027l0.009-0.001z"></path>
</symbol>
<symbol id="icon-age-limit-18" viewBox="0 0 32 32">
<path d="M24 6.667h1.333v1.333c0 0.736 0.597 1.333 1.333 1.333s1.333-0.597 1.333-1.333v0-1.333h1.333c0.736 0 1.333-0.597 1.333-1.333s-0.597-1.333-1.333-1.333v0h-1.333v-1.333c0-0.736-0.597-1.333-1.333-1.333s-1.333 0.597-1.333 1.333v0 1.333h-1.333c-0.736 0-1.333 0.597-1.333 1.333s0.597 1.333 1.333 1.333v0zM9.333 9.333v13.333c0 0.736 0.597 1.333 1.333 1.333s1.333-0.597 1.333-1.333v0-13.333c0-0.736-0.597-1.333-1.333-1.333s-1.333 0.597-1.333 1.333v0zM28.8 12c-0.613 0.128-1.067 0.664-1.067 1.306 0 0.094 0.010 0.187 0.029 0.276l-0.002-0.009c0.157 0.728 0.247 1.563 0.247 2.42 0 6.627-5.373 12-12 12s-12-5.373-12-12c0-6.627 5.373-12 12-12 0.857 0 1.693 0.090 2.498 0.26l-0.078-0.014c0.080 0.017 0.172 0.026 0.267 0.026 0.751 0 1.36-0.609 1.36-1.36 0-0.657-0.465-1.204-1.084-1.332l-0.009-0.002c-0.793-0.155-1.705-0.244-2.638-0.244-0.113 0-0.226 0.001-0.339 0.004l0.017-0c-8.1 0-14.667 6.566-14.667 14.667s6.566 14.667 14.667 14.667c8.1 0 14.667-6.566 14.667-14.667v0c0-0.012 0-0.027 0-0.041 0-1.024-0.107-2.023-0.31-2.986l0.017 0.094c-0.118-0.626-0.66-1.093-1.311-1.093-0.093 0-0.183 0.009-0.271 0.027l0.009-0.001zM14.667 12v1.333c0.006 1.029 0.4 1.965 1.043 2.67l-0.003-0.003c-0.64 0.702-1.034 1.638-1.040 2.665v1.335c0 2.209 1.791 4 4 4v0h1.333c2.209 0 4-1.791 4-4v0-1.333c-0.006-1.029-0.4-1.965-1.043-2.67l0.003 0.003c0.64-0.702 1.034-1.638 1.040-2.665v-1.335c0-2.209-1.791-4-4-4v0h-1.333c-2.209 0-4 1.791-4 4v0zM21.333 20c0 0.736-0.597 1.333-1.333 1.333v0h-1.333c-0.736 0-1.333-0.597-1.333-1.333v0-1.333c0-0.736 0.597-1.333 1.333-1.333v0h1.333c0.736 0 1.333 0.597 1.333 1.333v0zM21.333 12v1.333c0 0.736-0.597 1.333-1.333 1.333v0h-1.333c-0.736 0-1.333-0.597-1.333-1.333v0-1.333c0-0.736 0.597-1.333 1.333-1.333v0h1.333c0.736 0 1.333 0.597 1.333 1.333v0z"></path>
</symbol>
<symbol id="icon-facebook" viewBox="0 0 32 32">
<path d="M16.009 2.481c-7.454 0-13.518 6.064-13.518 13.519s6.064 13.519 13.518 13.519c7.454 0 13.519-6.064 13.519-13.519s-6.065-13.519-13.519-13.519zM16.009 28.185c-6.719 0-12.185-5.466-12.185-12.185s5.466-12.185 12.185-12.185 12.186 5.466 12.186 12.185c-0 6.719-5.467 12.185-12.186 12.185z"></path>
<path d="M20.176 8.068h-2.932c-0.007 0-0.014 0-0.020 0.001-2.961 0.009-3.347 2.077-3.349 3.884-0.004 0.017-0.006 0.034-0.006 0.052v1.268h-2.026c-0.123 0-0.222 0.1-0.222 0.222v3.128c0 0.123 0.1 0.222 0.222 0.222h2.026v6.865c0 0.123 0.1 0.222 0.222 0.222h2.957c0.123 0 0.222-0.099 0.222-0.222v-6.864h2.906c0.123 0 0.222-0.099 0.222-0.222v-3.128c0-0.123-0.099-0.222-0.222-0.222h-3.128v-1.682h3.128c0.123 0 0.222-0.1 0.222-0.222v-3.079c0-0.123-0.099-0.222-0.222-0.222z"></path>
</symbol>
<symbol id="icon-film" viewBox="0 0 32 32">
<path d="M30 0h-28c-1.105 0-2 0.895-2 2v0 28c0 1.105 0.895 2 2 2v0h28c1.105 0 2-0.895 2-2v0-28c0-1.105-0.895-2-2-2v0zM6 18v4h-4v-4h4zM2 14v-4h4v4h-4zM8 20h16v10h-16v-10zM24 18h-16v-16h16v16zM26 18h4v4h-4v-4zM26 14v-4h4v4h-4zM26 6v-4h4v4h-4zM6 6h-4v-4h4v4zM2 26h4v4h-4v-4zM26 26h4v4h-4v-4z"></path>
</symbol>
<symbol id="icon-id" viewBox="0 0 32 32">
<path d="M30 6h-28c-1.105 0-2 0.895-2 2v0 18c0 1.105 0.895 2 2 2v0h28c1.105 0 2-0.895 2-2v0-18c0-1.105-0.895-2-2-2v0zM2 8h28v18h-28v-18zM27.166 16h-12.166c-0.552 0-1 0.448-1 1s0.448 1 1 1v0h12.166c0.552 0 1-0.448 1-1s-0.448-1-1-1v0zM27.166 20h-12.166c-0.552 0-1 0.448-1 1s0.448 1 1 1v0h12.166c0.552 0 1-0.448 1-1s-0.448-1-1-1v0zM27.166 12h-12.166c-0.552 0-1 0.448-1 1s0.448 1 1 1v0h12.166c0.552 0 1-0.448 1-1s-0.448-1-1-1v0zM5.58 12.416c0 1.334 1.082 2.416 2.416 2.416s2.416-1.082 2.416-2.416v0c0-1.334-1.082-2.416-2.416-2.416s-2.416 1.082-2.416 2.416v0zM8.048 15.798c-2.184 0-3.952 2.372-3.952 5.3s7.904 2.926 7.904 0-1.77-5.3-3.952-5.3z"></path>
</symbol>
<symbol id="icon-information" viewBox="0 0 32 32">
<path d="M14.667 22.667h2.667v-8h-2.667v8zM16 2.667c-7.367 0-13.333 5.967-13.333 13.333s5.967 13.333 13.333 13.333 13.333-5.967 13.333-13.333-5.967-13.333-13.333-13.333zM16 26.667c-5.88 0-10.667-4.787-10.667-10.667s4.787-10.667 10.667-10.667 10.667 4.787 10.667 10.667-4.787 10.667-10.667 10.667zM14.667 12h2.667v-2.667h-2.667v2.667z"></path>
</symbol>
<symbol id="icon-instagram" viewBox="0 0 32 32">
<path d="M16.009 2.481c-7.454 0-13.518 6.064-13.518 13.519s6.064 13.519 13.518 13.519c7.454 0 13.519-6.064 13.519-13.519s-6.065-13.519-13.519-13.519zM16.009 28.185c-6.719 0-12.185-5.466-12.185-12.185s5.466-12.185 12.185-12.185c6.719 0 12.185 5.466 12.185 12.185s-5.466 12.185-12.185 12.185z"></path>
<path d="M20.239 9.489h-8.46c-1.248 0-2.263 1.015-2.263 2.263v8.499c0 1.248 1.015 2.263 2.263 2.263h8.46c1.248 0 2.263-1.015 2.263-2.263v-8.499c0-1.248-1.015-2.263-2.263-2.263zM17.966 15.978c0 1.079-0.878 1.957-1.957 1.957s-1.957-0.878-1.957-1.957c0-0.535 0.216-1.021 0.566-1.374h2.782c0.35 0.354 0.566 0.839 0.566 1.374zM18.533 11.3h1.982v2.042h-1.982v-2.042zM20.239 21.181h-8.46c-0.513 0-0.93-0.417-0.93-0.93v-5.648h2.174c-0.194 0.419-0.305 0.883-0.305 1.374 0 1.814 1.476 3.29 3.29 3.29s3.29-1.476 3.29-3.29c0-0.491-0.111-0.955-0.305-1.374h2.174v5.648c0 0.513-0.417 0.93-0.93 0.93z"></path>
</symbol>
<symbol id="icon-linkedin" viewBox="0 0 32 32">
<path d="M16.009 2.481c-7.454 0-13.518 6.064-13.518 13.519s6.064 13.519 13.518 13.519c7.454 0 13.519-6.064 13.519-13.519s-6.065-13.519-13.519-13.519zM16.009 28.185c-6.719 0-12.185-5.466-12.185-12.185s5.466-12.185 12.185-12.185 12.186 5.466 12.186 12.185c-0 6.719-5.467 12.185-12.186 12.185z"></path>
<path d="M9.143 13.136h3.128v8.163h-3.128v-8.163z"></path>
<path d="M12.259 10.389c0 0.798-0.709 1.444-1.583 1.444s-1.583-0.647-1.583-1.444c0-0.798 0.709-1.444 1.583-1.444s1.583 0.647 1.583 1.444z"></path>
<path d="M20.135 12.951c-0.641 0-1.184 0.117-1.63 0.35s-0.886 0.621-1.322 1.164v-1.33h-2.913v8.163h3.128v-3.92c0-0.743 0.118-1.258 0.354-1.545s0.543-0.43 0.922-0.43c0.343 0 0.61 0.106 0.8 0.319s0.284 0.575 0.284 1.088v4.489h3.144v-5.188c0-1.076-0.245-1.872-0.734-2.387s-1.167-0.772-2.033-0.772z"></path>
</symbol>
<symbol id="icon-lock" viewBox="0 0 32 32">
<path d="M16 0c-5.522 0-10 4.546-10 10.154v1.846h-2c-1.105 0-2 0.895-2 2v0 16c0 1.105 0.895 2 2 2v0h24c1.105 0 2-0.895 2-2v0-16c0-1.105-0.895-2-2-2v0h-2v-1.846c0-5.608-4.478-10.154-10-10.154zM8 10.154c0-4.496 3.588-8.154 8-8.154s8 3.658 8 8.154v1.846h-16v-1.846zM28 30h-24v-16h24v16zM20 22c0-2.21-1.79-4-4-4s-4 1.79-4 4 1.79 4 4 4 4-1.79 4-4zM16 24c-1.102 0-2-0.898-2-2s0.898-2 2-2 2 0.898 2 2-0.898 2-2 2z"></path>
</symbol>
<symbol id="icon-mail" viewBox="0 0 32 32">
<path d="M30 8h-28c-1.105 0-2 0.895-2 2v0 20c0 1.105 0.895 2 2 2v0h28c1.105 0 2-0.895 2-2v0-20c0-1.105-0.895-2-2-2v0zM11.36 22.054l4.644 3.156 4.616-3.178 7.966 7.968h-25.172l7.946-7.946zM2 28.586v-12.896l7.676 5.218-7.676 7.678zM22.294 20.88l7.706-5.304v13.010l-7.706-7.706zM30 10v3.236l-0.042-0.060-13.962 9.614-13.996-9.516v-3.274h28z"></path>
</symbol>
<symbol id="icon-percent" viewBox="0 0 32 32">
<path d="M10.667 14.667c2.577 0 4.667-2.089 4.667-4.667s-2.089-4.667-4.667-4.667c-2.577 0-4.667 2.089-4.667 4.667v0c0 2.577 2.089 4.667 4.667 4.667v0zM10.667 8c1.105 0 2 0.895 2 2s-0.895 2-2 2c-1.105 0-2-0.895-2-2v0c0-1.105 0.895-2 2-2v0zM21.333 18.667c-2.577 0-4.667 2.089-4.667 4.667s2.089 4.667 4.667 4.667c2.577 0 4.667-2.089 4.667-4.667v0c0-2.577-2.089-4.667-4.667-4.667v0zM21.333 25.333c-1.105 0-2-0.895-2-2s0.895-2 2-2c1.105 0 2 0.895 2 2v0c0 1.105-0.895 2-2 2v0zM26.32 5.68c-0.215-0.215-0.512-0.348-0.84-0.348s-0.625 0.133-0.84 0.348l-18.96 18.96c-0.212 0.217-0.344 0.513-0.347 0.84v0c0 0.001 0 0.001 0 0.002 0 0.655 0.531 1.187 1.187 1.187 0.328 0 0.625-0.133 0.84-0.348l18.96-18.96c0.215-0.215 0.348-0.512 0.348-0.84s-0.133-0.625-0.348-0.84l-0-0z"></path>
</symbol>
<symbol id="icon-person" viewBox="0 0 32 32">
<path d="M16 14.667c2.946 0 5.333-2.388 5.333-5.333s-2.388-5.333-5.333-5.333c-2.946 0-5.333 2.388-5.333 5.333v0c0 2.946 2.388 5.333 5.333 5.333v0zM24 28c0.736 0 1.333-0.597 1.333-1.333v0c0-5.155-4.179-9.333-9.333-9.333s-9.333 4.179-9.333 9.333v0c0 0.736 0.597 1.333 1.333 1.333v0z"></path>
</symbol>
<symbol id="icon-phone" viewBox="0 0 32 32">
<path d="M23.2 29.333c-11.334-0.015-20.518-9.199-20.533-20.532v-0.001c0-3.387 2.746-6.133 6.133-6.133v0c0.012-0 0.026-0 0.040-0 0.349 0 0.69 0.034 1.020 0.099l-0.033-0.005c0.362 0.054 0.686 0.138 0.995 0.251l-0.035-0.011c0.443 0.159 0.772 0.532 0.865 0.991l0.001 0.009 1.827 8c0.021 0.089 0.033 0.19 0.033 0.295 0 0.363-0.145 0.692-0.38 0.932l0-0c-0.173 0.187-0.187 0.2-1.827 1.053 1.341 2.893 3.607 5.168 6.413 6.486l0.081 0.034c0.867-1.653 0.88-1.667 1.067-1.84 0.24-0.235 0.569-0.38 0.932-0.38 0.105 0 0.206 0.012 0.304 0.035l-0.009-0.002 8 1.827c0.452 0.107 0.808 0.433 0.957 0.857l0.003 0.009c0.102 0.274 0.19 0.602 0.248 0.939l0.005 0.035c0.051 0.302 0.080 0.651 0.080 1.006 0 0.003 0 0.005 0 0.008v-0c-0.052 3.347-2.778 6.040-6.133 6.040-0.019 0-0.038-0-0.057-0l0.003 0z"></path>
</symbol>
<symbol id="icon-play" viewBox="0 0 32 32">
<path d="M13.333 22l8-6-8-6v12zM16 2.667c-7.367 0-13.333 5.967-13.333 13.333s5.967 13.333 13.333 13.333 13.333-5.967 13.333-13.333-5.967-13.333-13.333-13.333zM16 26.667c-5.88 0-10.667-4.787-10.667-10.667s4.787-10.667 10.667-10.667 10.667 4.787 10.667 10.667-4.787 10.667-10.667 10.667z"></path>
</symbol>
<symbol id="icon-save" viewBox="0 0 32 32">
<path d="M13.333 22.667h5.333v5.333h-5.333v-5.333z"></path>
<path d="M26.827 11.613l-6.44-6.44c-0.723-0.724-1.723-1.172-2.826-1.173h-4.227v8h6.667c0.736 0 1.333 0.597 1.333 1.333s-0.597 1.333-1.333 1.333v0h-8c-0.736 0-1.333-0.597-1.333-1.333v0-9.333h-2.667c-2.209 0-4 1.791-4 4v0 16c0 2.209 1.791 4 4 4v0h2.667v-5.333c0-1.473 1.194-2.667 2.667-2.667v0h5.333c1.473 0 2.667 1.194 2.667 2.667v0 5.333h2.667c2.209 0 4-1.791 4-4v0-9.56c-0.001-1.104-0.449-2.103-1.173-2.827l-0-0z"></path>
</symbol>
<symbol id="icon-settings" viewBox="0 0 32 32">
<path d="M18 16c0 1.105-0.895 2-2 2s-2-0.895-2-2c0-1.105 0.895-2 2-2s2 0.895 2 2z"></path>
<path d="M29.187 13.76l-1.053-3.36c-0.378-1.262-1.529-2.166-2.892-2.166-0.339 0-0.665 0.056-0.969 0.159l0.021-0.006-0.453 0.147c-0.217 0.074-0.468 0.117-0.728 0.117-0.525 0-1.009-0.174-1.398-0.468l0.006 0.004-0.147-0.107c-0.562-0.433-0.92-1.106-0.92-1.864 0-0.015 0-0.030 0-0.045l-0 0.002v-0.373c0-0.007 0-0.016 0-0.024 0-0.863-0.346-1.646-0.907-2.216l0 0c-0.544-0.55-1.299-0.891-2.133-0.893h-3.4c-1.691 0.023-3.053 1.399-3.053 3.093 0 0.005 0 0.010 0 0.014v-0.001 0.32c-0.003 0.813-0.38 1.537-0.968 2.009l-0.005 0.004-0.173 0.133c-0.426 0.325-0.967 0.521-1.553 0.521-0.294 0-0.576-0.049-0.839-0.14l0.018 0.005c-0.278-0.099-0.599-0.157-0.933-0.157-0.477 0-0.927 0.117-1.323 0.324l0.016-0.008c-0.717 0.361-1.255 0.991-1.488 1.753l-0.005 0.021-1.093 3.467c-0.097 0.288-0.152 0.619-0.152 0.963 0 1.367 0.879 2.529 2.104 2.951l0.022 0.007h0.213c0.727 0.278 1.277 0.872 1.489 1.609l0.004 0.017 0.080 0.213c0.105 0.28 0.166 0.603 0.166 0.94 0 0.575-0.177 1.108-0.479 1.55l0.006-0.009c-0.383 0.517-0.613 1.167-0.613 1.87 0 1.031 0.494 1.947 1.258 2.524l0.008 0.006 2.76 2.093c0.488 0.358 1.101 0.574 1.764 0.574 0.013 0 0.025-0 0.038-0l-0.002 0c0.078 0.008 0.168 0.013 0.26 0.013s0.182-0.005 0.271-0.014l-0.011 0.001c0.829-0.164 1.521-0.651 1.953-1.322l0.007-0.012 0.307-0.44c0.428-0.608 1.119-1.006 1.903-1.027l0.003-0c0.017-0 0.037-0.001 0.057-0.001 0.807 0 1.518 0.41 1.937 1.032l0.005 0.008 0.16 0.227c0.544 0.801 1.451 1.321 2.479 1.321 0.686 0 1.317-0.231 1.821-0.619l-0.007 0.005 2.707-2.027c0.75-0.586 1.227-1.49 1.227-2.506 0-0.673-0.21-1.297-0.567-1.811l0.007 0.010-0.347-0.507c-0.268-0.409-0.428-0.91-0.428-1.449 0-0.268 0.039-0.526 0.113-0.77l-0.005 0.019c0.23-0.804 0.828-1.433 1.596-1.701l0.018-0.005 0.267-0.093c1.242-0.44 2.115-1.604 2.115-2.973 0-0.333-0.052-0.655-0.148-0.956l0.006 0.022zM16 20.667c-2.577 0-4.667-2.089-4.667-4.667s2.089-4.667 4.667-4.667c2.577 0 4.667 2.089 4.667 4.667v0c0 2.577-2.089 4.667-4.667 4.667v0z"></path>
</symbol>
<symbol id="icon-shopping" viewBox="0 0 32 32">
<path d="M28.107 9.333c-0.462-0.791-1.301-1.317-2.264-1.333l-0.002-0h-17.067l-0.773-3.013c-0.158-0.573-0.674-0.987-1.288-0.987-0.016 0-0.032 0-0.048 0.001l0.002-0h-2.667c-0.736 0-1.333 0.597-1.333 1.333s0.597 1.333 1.333 1.333v0h1.653l3.68 13.68c0.158 0.573 0.674 0.987 1.288 0.987 0.016 0 0.032-0 0.048-0.001l-0.002 0h12c0.516-0.002 0.963-0.296 1.183-0.726l0.003-0.008 4.373-8.747c0.164-0.336 0.26-0.731 0.26-1.148 0-0.507-0.141-0.98-0.387-1.384l0.007 0.012z"></path>
<path d="M12 26c0 1.105-0.895 2-2 2s-2-0.895-2-2c0-1.105 0.895-2 2-2s2 0.895 2 2z"></path>
<path d="M25.333 26c0 1.105-0.895 2-2 2s-2-0.895-2-2c0-1.105 0.895-2 2-2s2 0.895 2 2z"></path>
</symbol>
<symbol id="icon-ticket" viewBox="0 0 32 32">
<path stroke-linejoin="round" stroke-linecap="round" stroke-miterlimit="4" stroke-width="3" d="M12 7v18"></path>
<path stroke-linejoin="round" stroke-linecap="round" stroke-miterlimit="4" stroke-width="3" d="M3 20.899c0-0 0-0 0-0 0-0.481 0.34-0.883 0.793-0.977l0.006-0.001c1.839-0.386 3.2-1.994 3.2-3.92s-1.361-3.534-3.174-3.915l-0.026-0.005c-0.46-0.096-0.8-0.497-0.8-0.979 0-0 0-0 0-0v0-3.101c0-0.552 0.448-1 1-1v0h24c0.552 0 1 0.448 1 1v0 3.101c0 0 0 0 0 0 0 0.481-0.34 0.883-0.793 0.977l-0.006 0.001c-1.839 0.386-3.2 1.994-3.2 3.92s1.361 3.534 3.174 3.915l0.026 0.005c0.46 0.096 0.8 0.497 0.8 0.979 0 0 0 0 0 0v0 3.101c0 0.552-0.448 1-1 1v0h-24c-0.552 0-1-0.448-1-1v0z"></path>
</symbol>
<symbol id="icon-trash" viewBox="0 0 32 32">
<path d="M28 8h-6.667v-2.227c-0.065-1.73-1.484-3.108-3.224-3.108-0.038 0-0.076 0.001-0.114 0.002l0.006-0h-4c-0.032-0.001-0.071-0.002-0.109-0.002-1.74 0-3.159 1.378-3.224 3.103l-0 0.006v2.227h-6.667c-0.736 0-1.333 0.597-1.333 1.333s0.597 1.333 1.333 1.333v0h1.333v14.667c0 2.209 1.791 4 4 4v0h13.333c2.209 0 4-1.791 4-4v0-14.667h1.333c0.736 0 1.333-0.597 1.333-1.333s-0.597-1.333-1.333-1.333v0zM13.333 21.333c0 0.736-0.597 1.333-1.333 1.333s-1.333-0.597-1.333-1.333v0-5.333c0-0.736 0.597-1.333 1.333-1.333s1.333 0.597 1.333 1.333v0zM13.333 5.773c0-0.213 0.28-0.44 0.667-0.44h4c0.387 0 0.667 0.227 0.667 0.44v2.227h-5.333zM21.333 21.333c0 0.736-0.597 1.333-1.333 1.333s-1.333-0.597-1.333-1.333v0-5.333c0-0.736 0.597-1.333 1.333-1.333s1.333 0.597 1.333 1.333v0z"></path>
</symbol>
<symbol id="icon-twitter" viewBox="0 0 32 32">
<path d="M16.009 2.481c-7.454 0-13.518 6.064-13.518 13.519s6.064 13.519 13.518 13.519c7.454 0 13.519-6.064 13.519-13.519s-6.065-13.519-13.519-13.519zM16.009 28.185c-6.719 0-12.185-5.466-12.185-12.185s5.466-12.185 12.185-12.185 12.186 5.466 12.186 12.185c-0 6.719-5.467 12.185-12.186 12.185z"></path>
<path d="M22.046 11.596c0.311-0.16 1.055-0.637 1.405-1.66 0 0-0.845 0.611-1.995 0.683l-0.021 0.012c-0.588-0.642-1.434-1.045-2.375-1.045-1.78 0-3.222 1.443-3.222 3.222 0 0.27 0.034 0.532 0.096 0.783l-0.016-0.023c0 0-3.451 0.198-6.705-3.362 0 0-1.438 2.445 1.024 4.314-0.539 0.090-1.492-0.396-1.492-0.396s0.054 2.57 2.606 3.2c-0.413 0.108-1.186 0.144-1.438 0.036 0 0 0.377 1.959 2.984 2.301-0.665 0.378-1.905 1.528-4.71 1.312 0 0 2.014 1.654 5.753 1.42s6.453-2.75 7.55-5.411c1.096-2.66 0.791-4.175 0.791-4.175s0.916-0.481 1.546-1.631c-0.291 0.087-1.37 0.351-1.771 0.448-0.004-0.009-0.008-0.019-0.012-0.028z"></path>
</symbol>
<symbol id="icon-wallet" viewBox="0 0 32 32">
<path d="M25.333 9.333h-1.333v-1.333c0-2.209-1.791-4-4-4v0h-13.333c-2.209 0-4 1.791-4 4v0 0 16c0 2.209 1.791 4 4 4v0h18.667c2.209 0 4-1.791 4-4v0-10.667c0-2.209-1.791-4-4-4v0zM6.667 6.667h13.333c0.736 0 1.333 0.597 1.333 1.333v0 1.333h-14.667c-0.736 0-1.333-0.597-1.333-1.333s0.597-1.333 1.333-1.333v0zM26.667 20h-1.333c-0.736 0-1.333-0.597-1.333-1.333s0.597-1.333 1.333-1.333v0h1.333zM26.667 14.667h-1.333c-2.209 0-4 1.791-4 4s1.791 4 4 4v0h1.333v1.333c0 0.736-0.597 1.333-1.333 1.333v0h-18.667c-0.736 0-1.333-0.597-1.333-1.333v0-12.227c0.395 0.144 0.852 0.227 1.327 0.227 0.002 0 0.004 0 0.006 0h18.666c0.736 0 1.333 0.597 1.333 1.333v0z"></path>
</symbol>
<symbol id="icon-youtube" viewBox="0 0 32 32">
<path d="M16.009 2.481c-7.454 0-13.518 6.064-13.518 13.519s6.064 13.519 13.518 13.519c7.454 0 13.519-6.064 13.519-13.519s-6.065-13.519-13.519-13.519zM16.009 28.185c-6.719 0-12.185-5.466-12.185-12.185s5.466-12.185 12.185-12.185c6.719 0 12.186 5.466 12.186 12.185s-5.467 12.185-12.186 12.185z"></path>
<path d="M21.417 11.204c0 0-1.528-0.222-5.5-0.222-3.986 0-5.389 0.222-5.389 0.222-0.988 0-1.789 0.801-1.789 1.789v5.903c0 0.988 0.801 1.789 1.789 1.789 0 0 1.403 0.222 5.394 0.222 3.968 0 5.495-0.222 5.495-0.222 0.988 0 1.789-0.801 1.789-1.789v-5.903c0-0.988-0.801-1.789-1.789-1.789zM13.782 18.777v-5.633l4.879 2.816-4.879 2.817z"></path>
</symbol>
</defs>
</svg>
